<mxfile host="Electron" agent="Mozilla/5.0 (Windows NT 10.0; Win64; x64) AppleWebKit/537.36 (KHTML, like Gecko) draw.io/24.7.5 Chrome/126.0.6478.183 Electron/31.3.0 Safari/537.36" version="24.7.5">
  <diagram name="Page-1" id="1spAd7ghpoYEvS6RG_qY">
    <mxGraphModel dx="1068" dy="539" grid="1" gridSize="10" guides="1" tooltips="1" connect="1" arrows="1" fold="1" page="1" pageScale="1" pageWidth="850" pageHeight="1100" math="0" shadow="0">
      <root>
        <mxCell id="0" />
        <mxCell id="1" parent="0" />
        <mxCell id="11UIwXflMGSxaVpo8QBB-8" value="" style="edgeStyle=orthogonalEdgeStyle;rounded=0;orthogonalLoop=1;jettySize=auto;html=1;" parent="1" source="11UIwXflMGSxaVpo8QBB-1" target="11UIwXflMGSxaVpo8QBB-7" edge="1">
          <mxGeometry relative="1" as="geometry" />
        </mxCell>
        <mxCell id="11UIwXflMGSxaVpo8QBB-1" value="" style="rounded=1;whiteSpace=wrap;html=1;fillColor=#E6D0DE;" parent="1" vertex="1">
          <mxGeometry x="30" y="230" width="120" height="110" as="geometry" />
        </mxCell>
        <mxCell id="11UIwXflMGSxaVpo8QBB-2" value="&lt;font style=&quot;font-size: 14px;&quot;&gt;&lt;b&gt;DATA SOURCE&lt;/b&gt;&lt;/font&gt;" style="rounded=1;whiteSpace=wrap;html=1;fillColor=#BF87FF;" parent="1" vertex="1">
          <mxGeometry x="45" y="170" width="100" height="40" as="geometry" />
        </mxCell>
        <mxCell id="11UIwXflMGSxaVpo8QBB-3" value="" style="rounded=1;whiteSpace=wrap;html=1;fillColor=#E6D0DE;" parent="1" vertex="1">
          <mxGeometry x="230" y="120" width="120" height="320" as="geometry" />
        </mxCell>
        <mxCell id="11UIwXflMGSxaVpo8QBB-4" value="" style="rounded=1;whiteSpace=wrap;html=1;fillColor=#E6D0DE;" parent="1" vertex="1">
          <mxGeometry x="200" y="480" width="160" height="60" as="geometry" />
        </mxCell>
        <mxCell id="11UIwXflMGSxaVpo8QBB-5" value="" style="rounded=1;whiteSpace=wrap;html=1;fillColor=#E6D0DE;" parent="1" vertex="1">
          <mxGeometry x="570" y="112.5" width="275" height="327.5" as="geometry" />
        </mxCell>
        <mxCell id="11UIwXflMGSxaVpo8QBB-6" value="" style="sketch=0;points=[[0,0,0],[0.25,0,0],[0.5,0,0],[0.75,0,0],[1,0,0],[0,1,0],[0.25,1,0],[0.5,1,0],[0.75,1,0],[1,1,0],[0,0.25,0],[0,0.5,0],[0,0.75,0],[1,0.25,0],[1,0.5,0],[1,0.75,0]];outlineConnect=0;fontColor=#232F3E;fillColor=#DD344C;strokeColor=#ffffff;dashed=0;verticalLabelPosition=bottom;verticalAlign=top;align=center;html=1;fontSize=12;fontStyle=0;aspect=fixed;shape=mxgraph.aws4.resourceIcon;resIcon=mxgraph.aws4.pinpoint;" parent="1" vertex="1">
          <mxGeometry x="50" y="245" width="80" height="80" as="geometry" />
        </mxCell>
        <mxCell id="11UIwXflMGSxaVpo8QBB-7" value="&lt;font style=&quot;font-size: 14px;&quot;&gt;&lt;b&gt;LIVE&lt;/b&gt;&lt;/font&gt;&lt;div&gt;&lt;font size=&quot;3&quot;&gt;&lt;b&gt;WEATHER&amp;nbsp;&lt;/b&gt;&lt;/font&gt;&lt;/div&gt;&lt;div&gt;&lt;font size=&quot;3&quot;&gt;&lt;b&gt;API&lt;/b&gt;&lt;/font&gt;&lt;/div&gt;" style="text;html=1;align=center;verticalAlign=middle;whiteSpace=wrap;rounded=0;" parent="1" vertex="1">
          <mxGeometry x="40" y="360" width="110" height="60" as="geometry" />
        </mxCell>
        <mxCell id="11UIwXflMGSxaVpo8QBB-9" value="" style="image;aspect=fixed;html=1;points=[];align=center;fontSize=12;image=img/lib/azure2/analytics/Azure_Databricks.svg;" parent="1" vertex="1">
          <mxGeometry x="246.21" y="160.17" width="87.57" height="94.83" as="geometry" />
        </mxCell>
        <mxCell id="11UIwXflMGSxaVpo8QBB-10" value="" style="image;aspect=fixed;html=1;points=[];align=center;fontSize=12;image=img/lib/azure2/compute/Function_Apps.svg;" parent="1" vertex="1">
          <mxGeometry x="237.78" y="310" width="102.01" height="90" as="geometry" />
        </mxCell>
        <mxCell id="11UIwXflMGSxaVpo8QBB-12" value="" style="image;aspect=fixed;html=1;points=[];align=center;fontSize=12;image=img/lib/azure2/analytics/Event_Hubs.svg;" parent="1" vertex="1">
          <mxGeometry x="420" y="255" width="83.75" height="75" as="geometry" />
        </mxCell>
        <mxCell id="11UIwXflMGSxaVpo8QBB-13" value="&lt;font style=&quot;font-size: 14px;&quot;&gt;&lt;b&gt;DATA&lt;/b&gt;&lt;/font&gt;&lt;div&gt;&lt;font style=&quot;font-size: 14px;&quot;&gt;&lt;b&gt;INGESTION&lt;/b&gt;&lt;/font&gt;&lt;/div&gt;" style="rounded=1;whiteSpace=wrap;html=1;fillColor=#BF87FF;" parent="1" vertex="1">
          <mxGeometry x="240" y="40" width="100" height="40" as="geometry" />
        </mxCell>
        <mxCell id="11UIwXflMGSxaVpo8QBB-14" value="&lt;font style=&quot;font-size: 14px;&quot;&gt;&lt;b&gt;DATA&lt;br&gt;STREAMING&lt;/b&gt;&lt;/font&gt;" style="rounded=1;whiteSpace=wrap;html=1;fillColor=#BF87FF;" parent="1" vertex="1">
          <mxGeometry x="403.75" y="200" width="100" height="40" as="geometry" />
        </mxCell>
        <mxCell id="11UIwXflMGSxaVpo8QBB-15" value="&lt;span style=&quot;font-size: 14px;&quot;&gt;&lt;b&gt;EVENT PROCESSING&lt;/b&gt;&lt;/span&gt;" style="rounded=1;whiteSpace=wrap;html=1;fillColor=#BF87FF;" parent="1" vertex="1">
          <mxGeometry x="600" y="40" width="220" height="40" as="geometry" />
        </mxCell>
        <mxCell id="11UIwXflMGSxaVpo8QBB-16" value="" style="image;aspect=fixed;html=1;points=[];align=center;fontSize=12;image=img/lib/azure2/general/Cost_Management.svg;" parent="1" vertex="1">
          <mxGeometry x="289.75" y="485" width="50.25" height="45" as="geometry" />
        </mxCell>
        <mxCell id="11UIwXflMGSxaVpo8QBB-17" value="" style="image;aspect=fixed;html=1;points=[];align=center;fontSize=12;image=img/lib/azure2/security/Key_Vaults.svg;" parent="1" vertex="1">
          <mxGeometry x="230" y="485" width="45" height="45" as="geometry" />
        </mxCell>
        <mxCell id="11UIwXflMGSxaVpo8QBB-24" value="" style="endArrow=none;dashed=1;html=1;rounded=0;exitX=1;exitY=0.5;exitDx=0;exitDy=0;entryX=0;entryY=0.531;entryDx=0;entryDy=0;shape=arrow;fillColor=#FFB366;entryPerimeter=0;" parent="1" source="11UIwXflMGSxaVpo8QBB-1" target="11UIwXflMGSxaVpo8QBB-3" edge="1">
          <mxGeometry width="50" height="50" relative="1" as="geometry">
            <mxPoint x="170" y="295" as="sourcePoint" />
            <mxPoint x="220" y="245" as="targetPoint" />
          </mxGeometry>
        </mxCell>
        <mxCell id="11UIwXflMGSxaVpo8QBB-25" value="" style="endArrow=none;dashed=1;html=1;rounded=0;exitX=1;exitY=0.5;exitDx=0;exitDy=0;entryX=0;entryY=0.5;entryDx=0;entryDy=0;shape=arrow;fillColor=#FFB366;" parent="1" edge="1">
          <mxGeometry width="50" height="50" relative="1" as="geometry">
            <mxPoint x="350" y="284.5" as="sourcePoint" />
            <mxPoint x="430" y="284.5" as="targetPoint" />
          </mxGeometry>
        </mxCell>
        <mxCell id="11UIwXflMGSxaVpo8QBB-26" value="" style="endArrow=none;dashed=1;html=1;rounded=0;entryX=0;entryY=0.5;entryDx=0;entryDy=0;shape=arrow;fillColor=#FFB366;" parent="1" edge="1">
          <mxGeometry width="50" height="50" relative="1" as="geometry">
            <mxPoint x="500" y="292" as="sourcePoint" />
            <mxPoint x="570" y="292" as="targetPoint" />
          </mxGeometry>
        </mxCell>
      </root>
    </mxGraphModel>
  </diagram>
</mxfile>
